<?xml version="1.0" encoding="utf-8"?><svg viewBox="0 0 502.66 502.66" xmlns="http://www.w3.org/2000/svg" xmlns:xlink="http://www.w3.org/1999/xlink"><style>:root>svg{display:none}:root>svg:target{display:block}</style><svg viewBox="0 0 16 19" id="bookmark" xmlns="http://www.w3.org/2000/svg"><g clip-path="url(#aa)"><path d="M.004 9.937c0 2.474-.006 4.947.002 7.42.004 1.05.716 1.73 1.723 1.624.286-.03.605-.16.822-.34a198.56 198.56 0 003.496-2.967c.456-.393.882-.819 1.336-1.214.44-.382.682-.382 1.122-.009 1.614 1.371 3.219 2.754 4.837 4.12.957.809 2.316.42 2.615-.736.04-.155.042-.322.042-.484.003-4.903.005-9.806 0-14.709 0-1.424-1-2.477-2.466-2.616a3.918 3.918 0 00-.368-.023C9.72.002 6.275-.007 2.831.006 1.426.012.397.75.09 1.946c-.08.31-.083.646-.084.97C0 5.255.004 7.595.004 9.935z"/></g><defs><clipPath id="aa"><path transform="matrix(-1 0 0 1 16 0)" d="M0 0h16v19H0z"/></clipPath></defs></svg><svg viewBox="0 0 74 74" id="circle" xmlns="http://www.w3.org/2000/svg"><circle cx="37" cy="37" r="37"/></svg><svg viewBox="0 0 16 16" id="fb" xmlns="http://www.w3.org/2000/svg"><g clip-path="url(#ca)"><path d="M16 8a8 8 0 10-9.25 7.903v-5.59H4.719V8H6.75V6.237c0-2.005 1.194-3.112 3.022-3.112.875 0 1.79.156 1.79.156V5.25h-1.008c-.994 0-1.304.617-1.304 1.25V8h2.219l-.355 2.313H9.25v5.59A8.002 8.002 0 0016 8z"/></g><defs><clipPath id="ca"><path d="M0 0h16v16H0z"/></clipPath></defs></svg><svg viewBox="0 0 16 16" id="fb-neg" xmlns="http://www.w3.org/2000/svg"><g clip-path="url(#da)"><path d="M16 8a8 8 0 10-9.25 7.903v-5.59H4.719V8H6.75V6.237c0-2.005 1.194-3.112 3.022-3.112.875 0 1.79.156 1.79.156V5.25h-1.008c-.994 0-1.304.617-1.304 1.25V8h2.219l-.355 2.313H9.25v5.59A8.002 8.002 0 0016 8z"/></g><defs><clipPath id="da"><path d="M0 0h16v16H0z"/></clipPath></defs></svg><svg viewBox="0 0 502.664 502.664" id="icon" xmlns="http://www.w3.org/2000/svg"><path d="M153.821 358.226L0 274.337v-46.463l153.821-83.414v54.574L46.636 250.523l107.185 53.431v54.272zm26.273 29.358L282.103 115.08h32.227L212.084 387.584h-31.99zm168.749-29.358v-54.272l107.164-52.999-107.164-52.59v-53.927l153.821 83.522v46.183l-153.821 84.083z"/></svg><svg viewBox="0 0 17 16" id="inst-neg" xmlns="http://www.w3.org/2000/svg"><g clip-path="url(#fa)"><path d="M8.334 1.44c2.138 0 2.39.01 3.231.048.782.034 1.203.165 1.485.274.371.144.64.32.918.597.282.282.454.547.597.92.11.28.24.705.275 1.484.038.843.047 1.096.047 3.23 0 2.138-.01 2.391-.047 3.232-.034.781-.165 1.203-.275 1.484a2.477 2.477 0 01-.597.92 2.46 2.46 0 01-.918.596c-.282.11-.707.24-1.485.275-.843.037-1.097.047-3.231.047-2.138 0-2.39-.01-3.231-.047-.782-.034-1.203-.166-1.485-.275a2.472 2.472 0 01-.918-.597 2.46 2.46 0 01-.597-.919c-.11-.28-.24-.706-.275-1.484-.038-.844-.047-1.097-.047-3.231 0-2.138.01-2.39.047-3.231.034-.782.165-1.204.275-1.485.143-.372.318-.64.597-.919a2.46 2.46 0 01.918-.597c.282-.109.707-.24 1.485-.274.84-.038 1.093-.047 3.231-.047zm0-1.44C6.162 0 5.89.01 5.037.047c-.85.037-1.434.175-1.94.372a3.905 3.905 0 00-1.42.925 3.92 3.92 0 00-.924 1.415C.556 3.27.418 3.85.38 4.7.343 5.556.334 5.828.334 8c0 2.172.01 2.444.047 3.297.037.85.175 1.434.372 1.94.206.529.478.976.925 1.42.443.443.89.718 1.415.921.51.197 1.091.335 1.941.372.853.038 1.125.047 3.297.047s2.444-.01 3.297-.047c.85-.037 1.434-.175 1.94-.372a3.91 3.91 0 001.416-.922c.444-.444.719-.89.922-1.415.197-.51.334-1.091.372-1.941.037-.853.047-1.125.047-3.297s-.01-2.444-.047-3.297c-.038-.85-.175-1.434-.372-1.94a3.747 3.747 0 00-.916-1.422 3.91 3.91 0 00-1.415-.922c-.51-.197-1.091-.334-1.941-.372-.856-.04-1.128-.05-3.3-.05z"/><path d="M8.334 3.89a4.11 4.11 0 000 8.22 4.11 4.11 0 000-8.22zm0 6.776a2.666 2.666 0 110-5.332 2.666 2.666 0 010 5.332zm5.231-6.938a.96.96 0 11-1.919 0 .96.96 0 011.92 0z"/></g><defs><clipPath id="fa"><path transform="translate(.334)" d="M0 0h16v16H0z"/></clipPath></defs></svg><svg viewBox="0 0 16 16" id="insta" xmlns="http://www.w3.org/2000/svg"><g clip-path="url(#ga)"><path d="M8 1.44c2.137 0 2.39.01 3.231.048.781.034 1.203.165 1.485.274.372.144.64.32.918.597.282.282.454.547.597.92.11.28.24.705.275 1.484.038.843.047 1.096.047 3.23 0 2.138-.01 2.391-.047 3.232-.034.781-.165 1.203-.275 1.484a2.477 2.477 0 01-.597.92 2.46 2.46 0 01-.918.596c-.282.11-.707.24-1.485.275-.844.037-1.097.047-3.231.047-2.138 0-2.39-.01-3.231-.047-.782-.034-1.203-.166-1.485-.275a2.474 2.474 0 01-.918-.597 2.46 2.46 0 01-.597-.919c-.11-.28-.24-.706-.275-1.484-.038-.844-.047-1.097-.047-3.231 0-2.138.01-2.39.047-3.231.034-.782.165-1.204.275-1.485.144-.372.319-.64.597-.919a2.46 2.46 0 01.918-.597c.282-.109.707-.24 1.485-.274C5.609 1.45 5.862 1.44 8 1.44zM8 0C5.828 0 5.556.01 4.703.047c-.85.037-1.434.175-1.94.372a3.905 3.905 0 00-1.42.925A3.92 3.92 0 00.42 2.759C.222 3.27.084 3.85.047 4.7.009 5.556 0 5.828 0 8c0 2.172.01 2.444.047 3.297.037.85.175 1.434.372 1.94.206.529.478.976.925 1.42.444.443.89.718 1.415.921.51.197 1.091.335 1.941.372.853.038 1.125.047 3.297.047s2.444-.01 3.297-.047c.85-.037 1.434-.175 1.94-.372a3.91 3.91 0 001.416-.922 3.91 3.91 0 00.922-1.415c.197-.51.334-1.091.372-1.941.037-.853.047-1.125.047-3.297s-.01-2.444-.047-3.297c-.038-.85-.175-1.434-.372-1.94a3.748 3.748 0 00-.916-1.422 3.911 3.911 0 00-1.415-.922C12.73.225 12.15.088 11.3.05 10.444.01 10.172 0 8 0z"/><path d="M8 3.89a4.11 4.11 0 000 8.22 4.11 4.11 0 000-8.22zm0 6.776a2.666 2.666 0 110-5.332 2.666 2.666 0 010 5.332zm5.231-6.938a.96.96 0 11-1.919 0 .96.96 0 011.92 0z"/></g><defs><clipPath id="ga"><path d="M0 0h16v16H0z"/></clipPath></defs></svg><svg viewBox="0 0 16 16" id="linked-neg" xmlns="http://www.w3.org/2000/svg"><g clip-path="url(#ha)"><path d="M14.816 0H1.18C.528 0 0 .516 0 1.153v13.69A1.17 1.17 0 001.181 16h13.635c.653 0 1.184-.519 1.184-1.153V1.153C16 .516 15.469 0 14.816 0zM4.746 13.634H2.373V5.997h2.375v7.637zM3.56 4.956a1.376 1.376 0 11-.004-2.751 1.376 1.376 0 01.004 2.751zm10.075 8.678h-2.372V9.922c0-.885-.015-2.025-1.234-2.025-1.234 0-1.422.966-1.422 1.962v3.775h-2.37V5.997h2.275V7.04h.032c.315-.6 1.09-1.235 2.243-1.235 2.404 0 2.847 1.582 2.847 3.638v4.19z"/></g><defs><clipPath id="ha"><path d="M0 0h16v16H0z"/></clipPath></defs></svg><svg viewBox="0 0 16 16" id="linkedin" xmlns="http://www.w3.org/2000/svg"><g clip-path="url(#ia)"><path d="M14.816 0H1.18C.528 0 0 .516 0 1.153v13.69A1.17 1.17 0 001.181 16h13.635c.653 0 1.184-.519 1.184-1.153V1.153C16 .516 15.469 0 14.816 0zM4.746 13.634H2.373V5.997h2.375v7.637zM3.56 4.956a1.376 1.376 0 11-.004-2.751 1.376 1.376 0 01.004 2.751zm10.075 8.678h-2.372V9.922c0-.885-.015-2.025-1.234-2.025-1.234 0-1.422.966-1.422 1.962v3.775h-2.37V5.997h2.275V7.04h.032c.315-.6 1.09-1.235 2.243-1.235 2.404 0 2.847 1.582 2.847 3.638v4.19z"/></g><defs><clipPath id="ia"><path d="M0 0h16v16H0z"/></clipPath></defs></svg><svg viewBox="0 0 103 116" id="shapes" xmlns="http://www.w3.org/2000/svg"><path d="M0 42.847C0 19.183 19.442 0 43.424 0H103v116H0V42.847z"/></svg><svg viewBox="0 0 24 24" id="shuttle" xmlns="http://www.w3.org/2000/svg"><g clip-path="url(#ka)"><path d="M14.95 9.051a2.112 2.112 0 003.6-1.491 2.103 2.103 0 00-2.11-2.108 2.1 2.1 0 00-1.49.616 2.096 2.096 0 00-.618 1.492c0 .563.22 1.093.618 1.491zM6.105 6.481l-2.08.16a1.855 1.855 0 00-1.413.833L.214 11.1a1.28 1.28 0 00-.104 1.23c.178.402.543.683.978.75l1.904.295c.445-2.363 1.512-4.721 3.112-6.893zm4.52 14.525l.295 1.904a1.28 1.28 0 001.27 1.089c.248 0 .494-.072.709-.214l3.627-2.398c.484-.32.787-.835.832-1.414l.16-2.079c-2.172 1.6-4.53 2.667-6.893 3.112zm-.715-1.319c.066 0 .132-.006.198-.017a13.77 13.77 0 002.855-.81L5.14 11.037c-.366.91-.644 1.865-.81 2.855-.065.39.066.788.345 1.068l4.367 4.366c.232.232.545.362.868.362z"/><path d="M22.087 10.64c1.913-3.7 1.985-7.612 1.885-9.447A1.232 1.232 0 0022.808.028 19.345 19.345 0 0021.756 0c-2.051 0-5.297.31-8.396 1.914-2.463 1.274-5.693 4.079-7.598 7.765a.706.706 0 01.065.057l8.437 8.437c.021.021.04.043.057.066 3.687-1.906 6.492-5.135 7.766-7.598zm-8.132-5.566a3.52 3.52 0 014.972 0 3.493 3.493 0 011.03 2.486c0 .939-.367 1.822-1.03 2.486a3.506 3.506 0 01-2.486 1.028c-.9 0-1.8-.343-2.486-1.028a3.493 3.493 0 01-1.03-2.486c0-.94.366-1.822 1.03-2.486zM.717 19.778a.7.7 0 00.497-.206l2.296-2.296a.703.703 0 00-.995-.994L.22 18.578a.703.703 0 00.497 1.2zm4.897-1.393a.703.703 0 00-.995 0L.206 22.8a.703.703 0 10.994.994l4.414-4.413a.703.703 0 000-.995zm1.108 2.105l-2.295 2.296a.703.703 0 00.994.995l2.296-2.296a.703.703 0 00-.995-.994z"/></g><defs><clipPath id="ka"><path d="M0 0h24v24H0z"/></clipPath></defs></svg><svg viewBox="0 0 16 17" id="tw" xmlns="http://www.w3.org/2000/svg"><path d="M5.033 15.407c6.037 0 9.34-5.315 9.34-9.923 0-.15-.004-.302-.01-.451A6.913 6.913 0 0016 3.227a6.177 6.177 0 01-1.884.548 3.477 3.477 0 001.443-1.929 6.369 6.369 0 01-2.083.847 3.232 3.232 0 00-1.863-1.053 3.12 3.12 0 00-2.081.367 3.416 3.416 0 00-1.443 1.635 3.693 3.693 0 00-.21 2.23 8.897 8.897 0 01-3.746-1.056A9.453 9.453 0 011.115 2.23a3.682 3.682 0 00-.358 2.54A3.5 3.5 0 002.13 6.887 3.14 3.14 0 01.644 6.45v.043c0 .805.261 1.586.742 2.21a3.253 3.253 0 001.891 1.21 3.09 3.09 0 01-1.48.06c.21.692.617 1.298 1.167 1.733.55.434 1.213.676 1.898.69A6.34 6.34 0 01.784 13.89 6.2 6.2 0 010 13.84a8.918 8.918 0 005.033 1.566z"/></svg><svg viewBox="0 0 17 16" id="tw-neg" xmlns="http://www.w3.org/2000/svg"><g clip-path="url(#ma)"><path d="M5.7 14.5c6.036 0 9.338-5.002 9.338-9.338 0-.14-.003-.285-.01-.425a6.665 6.665 0 001.638-1.7 6.472 6.472 0 01-1.884.516 3.3 3.3 0 001.443-1.815 6.598 6.598 0 01-2.083.796 3.287 3.287 0 00-5.596 2.993A9.323 9.323 0 011.78 2.1a3.286 3.286 0 001.016 4.38 3.287 3.287 0 01-1.487-.409v.04a3.281 3.281 0 002.634 3.22 3.28 3.28 0 01-1.481.056 3.289 3.289 0 003.065 2.281 6.583 6.583 0 01-4.862 1.358 9.312 9.312 0 005.033 1.475z"/></g><defs><clipPath id="ma"><path transform="translate(.666)" d="M0 0h16v16H0z"/></clipPath></defs></svg></svg>